<svg xmlns="http://www.w3.org/2000/svg" width="760" height="360" viewBox="0 0 760 360" font-family="-apple-system,Segoe UI,Helvetica,Arial,sans-serif">
<rect width="760" height="360" fill="white"/>
<text x="70" y="26" font-size="17" font-weight="600" fill="#111">Watching the token lock</text>
<text x="70" y="46" font-size="12" fill="#555">'The capital of France is' — the answer's ring minus the loudest other, every tick, while the input arrives over 128 ticks</text>
<line x1="70" y1="300.0" x2="740" y2="300.0" stroke="#eee"/>
<text x="62" y="304.0" font-size="11" text-anchor="end" fill="#666">-12</text>
<line x1="70" y1="270.0" x2="740" y2="270.0" stroke="#eee"/>
<text x="62" y="274.0" font-size="11" text-anchor="end" fill="#666">-10</text>
<line x1="70" y1="240.0" x2="740" y2="240.0" stroke="#eee"/>
<text x="62" y="244.0" font-size="11" text-anchor="end" fill="#666">-8</text>
<line x1="70" y1="210.0" x2="740" y2="210.0" stroke="#eee"/>
<text x="62" y="214.0" font-size="11" text-anchor="end" fill="#666">-6</text>
<line x1="70" y1="180.0" x2="740" y2="180.0" stroke="#eee"/>
<text x="62" y="184.0" font-size="11" text-anchor="end" fill="#666">-4</text>
<line x1="70" y1="150.0" x2="740" y2="150.0" stroke="#eee"/>
<text x="62" y="154.0" font-size="11" text-anchor="end" fill="#666">-2</text>
<line x1="70" y1="120.0" x2="740" y2="120.0" stroke="#bbb"/>
<text x="62" y="124.0" font-size="11" text-anchor="end" fill="#666">+0</text>
<line x1="70" y1="90.0" x2="740" y2="90.0" stroke="#eee"/>
<text x="62" y="94.0" font-size="11" text-anchor="end" fill="#666">+2</text>
<line x1="70" y1="60.0" x2="740" y2="60.0" stroke="#eee"/>
<text x="62" y="64.0" font-size="11" text-anchor="end" fill="#666">+4</text>
<rect x="141.1" y="60" width="598.9" height="240" fill="#e8f5e9"/>
<line x1="141.1" y1="60" x2="141.1" y2="300" stroke="#2e7d32" stroke-dasharray="4 3"/>
<text x="147.1" y="76" font-size="12" fill="#2e7d32">locked on ' the' at tick 15; input still arriving until tick 128</text>
<polyline points="70.0,164.0 75.1,229.6 80.2,192.7 85.2,168.9 90.3,173.1 95.4,156.2 100.5,255.1 105.5,271.9 110.6,216.5 115.7,117.8 120.8,123.9 125.8,173.9 130.9,109.1 136.0,129.6 141.1,115.7 146.1,118.9 151.2,119.7 156.3,118.7 161.4,119.0 166.4,117.5 171.5,108.2 176.6,103.0 181.7,98.4 186.7,96.3 191.8,94.8 252.7,100.3 313.6,114.2 374.5,115.5 435.5,115.2 496.4,114.8 557.3,114.3 618.2,113.2 679.1,112.3 740.0,111.5" fill="none" stroke="#c62828" stroke-width="2.2"/>
<circle cx="70.0" cy="164.0" r="2.6" fill="#c62828"/>
<circle cx="75.1" cy="229.6" r="2.6" fill="#c62828"/>
<circle cx="80.2" cy="192.7" r="2.6" fill="#c62828"/>
<circle cx="85.2" cy="168.9" r="2.6" fill="#c62828"/>
<circle cx="90.3" cy="173.1" r="2.6" fill="#c62828"/>
<circle cx="95.4" cy="156.2" r="2.6" fill="#c62828"/>
<circle cx="100.5" cy="255.1" r="2.6" fill="#c62828"/>
<circle cx="105.5" cy="271.9" r="2.6" fill="#c62828"/>
<circle cx="110.6" cy="216.5" r="2.6" fill="#c62828"/>
<circle cx="115.7" cy="117.8" r="2.6" fill="#c62828"/>
<circle cx="120.8" cy="123.9" r="2.6" fill="#c62828"/>
<circle cx="125.8" cy="173.9" r="2.6" fill="#c62828"/>
<circle cx="130.9" cy="109.1" r="2.6" fill="#c62828"/>
<circle cx="136.0" cy="129.6" r="2.6" fill="#c62828"/>
<circle cx="141.1" cy="115.7" r="2.6" fill="#c62828"/>
<circle cx="146.1" cy="118.9" r="2.6" fill="#c62828"/>
<circle cx="151.2" cy="119.7" r="2.6" fill="#c62828"/>
<circle cx="156.3" cy="118.7" r="2.6" fill="#c62828"/>
<circle cx="161.4" cy="119.0" r="2.6" fill="#c62828"/>
<circle cx="166.4" cy="117.5" r="2.6" fill="#c62828"/>
<circle cx="171.5" cy="108.2" r="2.6" fill="#c62828"/>
<circle cx="176.6" cy="103.0" r="2.6" fill="#c62828"/>
<circle cx="181.7" cy="98.4" r="2.6" fill="#c62828"/>
<circle cx="186.7" cy="96.3" r="2.6" fill="#c62828"/>
<circle cx="191.8" cy="94.8" r="2.6" fill="#c62828"/>
<circle cx="252.7" cy="100.3" r="2.6" fill="#c62828"/>
<circle cx="313.6" cy="114.2" r="2.6" fill="#c62828"/>
<circle cx="374.5" cy="115.5" r="2.6" fill="#c62828"/>
<circle cx="435.5" cy="115.2" r="2.6" fill="#c62828"/>
<circle cx="496.4" cy="114.8" r="2.6" fill="#c62828"/>
<circle cx="557.3" cy="114.3" r="2.6" fill="#c62828"/>
<circle cx="618.2" cy="113.2" r="2.6" fill="#c62828"/>
<circle cx="679.1" cy="112.3" r="2.6" fill="#c62828"/>
<circle cx="740.0" cy="111.5" r="2.6" fill="#c62828"/>
<text x="70.0" y="316" font-size="11" text-anchor="middle" fill="#666">1</text>
<text x="141.1" y="316" font-size="11" text-anchor="middle" fill="#666">15</text>
<text x="191.8" y="316" font-size="11" text-anchor="middle" fill="#666">25</text>
<text x="313.6" y="316" font-size="11" text-anchor="middle" fill="#666">49</text>
<text x="435.5" y="316" font-size="11" text-anchor="middle" fill="#666">73</text>
<text x="557.3" y="316" font-size="11" text-anchor="middle" fill="#666">97</text>
<text x="679.1" y="316" font-size="11" text-anchor="middle" fill="#666">121</text>
<text x="405.0" y="346" font-size="12" text-anchor="middle" fill="#333">tick</text>
<text transform="translate(16,180.0) rotate(-90)" font-size="12" text-anchor="middle" fill="#333">margin of ' the' over the loudest other fork</text>
</svg>